# xmcd
#
# Track frame offsets: 
#        150
#        14904
#        31730
#        49410
#        66906
#        88320
#        105325
#        121535
#        138017
#        154450
#        171519
#        187193
#        217698
#
# Disc length: 3178 seconds
#
# Revision: 1
# Processed by: cddbd v1.5.1PL0 Copyright (c) Steve Scherf et al.
# Submitted via: ExactAudioCopy v0.95a5
#
DISCID=b50c680d
DTITLE=Marsheaux - e-bay Queen
DYEAR=2004
DGENRE=Electronic
TTITLE0=m.a.r.s.h.e.a.u.x.
TTITLE1=flash lights
TTITLE2=shake me
TTITLE3=pure
TTITLE4=play boy
TTITLE5=computer love
TTITLE6=tonight
TTITLE7=the game
TTITLE8=analyze 
TTITLE9=ola gurizoun
TTITLE10=hands on me
TTITLE11=pop corn
TTITLE12=pop corn [video]
EXTD=Greek electro pop. one of the good ones
EXTT0=
EXTT1=
EXTT2=
EXTT3=
EXTT4=
EXTT5=
EXTT6=
EXTT7=
EXTT8=
EXTT9=
EXTT10=
EXTT11=
EXTT12=
PLAYORDER=
